<svg width="18" height="18" viewBox="0 0 18 18" fill="none" xmlns="http://www.w3.org/2000/svg">
<path fill-rule="evenodd" clip-rule="evenodd" d="M18 9C18 13.9706 13.9706 18 9 18C4.02944 18 0 13.9706 0 9C0 4.02944 4.02944 0 9 0C13.9706 0 18 4.02944 18 9ZM8.0547 5.16795C7.74784 4.96338 7.3533 4.94431 7.02814 5.11833C6.70298 5.29235 6.5 5.63121 6.5 6V12C6.5 12.3688 6.70298 12.7077 7.02814 12.8817C7.3533 13.0557 7.74784 13.0366 8.0547 12.8321L12.5547 9.83205C12.8329 9.64659 13 9.33435 13 9C13 8.66565 12.8329 8.35342 12.5547 8.16795L8.0547 5.16795Z" fill="#D2DDEC"/>
</svg>
