<svg width="18" height="18" viewBox="0 0 18 18" fill="none" xmlns="http://www.w3.org/2000/svg">
<path fill-rule="evenodd" clip-rule="evenodd" d="M18 9C18 13.9706 13.9706 18 9 18C4.02942 18 0 13.9706 0 9C0 4.02942 4.02942 0 9 0C13.9706 0 18 4.02942 18 9ZM5 8C4.44775 8 4 8.44775 4 9C4 9.55225 4.44775 10 5 10H13C13.5522 10 14 9.55225 14 9C14 8.44775 13.5522 8 13 8H5ZM4 13C4 12.4478 4.44775 12 5 12H13C13.5522 12 14 12.4478 14 13C14 13.5522 13.5522 14 13 14H5C4.44775 14 4 13.5522 4 13ZM5 4C4.44775 4 4 4.44775 4 5C4 5.55225 4.44775 6 5 6H7C7.55225 6 8 5.55225 8 5C8 4.44775 7.55225 4 7 4H5Z" fill="#D2DDEC"/>
</svg>
